# xmcd
#
# Track frame offsets:
#	150
#	11968
#	23676
#	37210
#	50785
#	62291
#	76647
#	89261
#	106010
#	118204
#	127806
#	137760
#	150320
#
# Disc length: 2115
#
# Revision: 1
# Processed by: cddbd v1.5.1PL0 Copyright (c) Steve Scherf et al.
# Submitted via: dBpowerAMP V4.0
# Normalized: r0:TRMNUM
#
DISCID=9b08410d
DTITLE=Willie Nelson - The Great Willie Nelson
DYEAR=2004
DGENRE=Country
TTITLE0=Is There Something On Your Mind
TTITLE1=I Hope So
TTITLE2=Everything But You
TTITLE3=A Moment Isn't Very Long
TTITLE4=Some Other Time
TTITLE5=Will You Remember Mine
TTITLE6=She's Not For You
TTITLE7=I Let My Mind Wander
TTITLE8=I Can't Find The Time
TTITLE9=Ashamed
TTITLE10=The Healing Hands Of Time
TTITLE11=And Old Arms Won't Do
TTITLE12=Slow Down Old World
EXTD=2 CD Set\nMadacy Entertainment Group, Ltd.
EXTT0=
EXTT1=
EXTT2=
EXTT3=
EXTT4=
EXTT5=
EXTT6=
EXTT7=
EXTT8=
EXTT9=
EXTT10=
EXTT11=
EXTT12=
PLAYORDER=
